<svg id="Logos" xmlns="http://www.w3.org/2000/svg" viewBox="0 0 320 110"><defs><style>.cls-1{fill:#82bc00;}</style></defs><title>Baxter Technology Group Logo Horizontal For Bright Backgrounds</title><path d="M303.75,30.33V30h1.7v.33h-.65V32h-.4V30.33Zm2.62-.33.51,1.43.51-1.43H308v2h-.37V30.39L307,32h-.32l-.56-1.61V32h-.37V30Z" /><path d="M142.19,44.74v-.09c3.79-.81,5.66-2.74,5.66-7.11a7.73,7.73,0,0,0-2.39-5.83c-1.26-1.16-3.18-1.71-6.22-1.71h-20.5V60h20.54c2.85,0,5-.56,6.36-1.8A7.84,7.84,0,0,0,148.14,52C148.14,47.1,146,45.56,142.19,44.74Zm-13.38-8.1h6.55c1,0,1.36.13,1.59.34a2.79,2.79,0,0,1,.61,2.14,3.42,3.42,0,0,1-.65,2.36c-.28.26-.61.3-1.54.3h-6.55ZM137.19,53c-.33.3-.79.39-1.68.39h-6.69V47.61h6.69a2.4,2.4,0,0,1,1.73.43c.37.34.61.81.61,2.53S137.51,52.67,137.19,53Z" /><path d="M213.71,30H204.2l-5.8,8.27h-.32L192.27,30H181.09l10.72,14.92-9.63,13.32-9.28-25.4c-.8-2.23-1.22-2.83-3.46-2.83h-8c-2.25,0-2.62.56-3.46,2.83L148,60h10.06l2-6.47h10.06L172.19,60h19.28l6-8.74h.33l6,8.74h11.09L204,44.74l9.69-13.33V37h9.59V60h10.06V37h9.83V30H213.71ZM162,47.1l2.81-8.83h.51l2.81,8.83Z" /><polygon points="244.55 60 271.32 60 271.32 53.06 254.61 53.06 254.61 48 266.78 48 266.78 41.57 254.61 41.57 254.61 36.94 271.32 36.94 271.32 30 244.55 30 244.55 60" /><path d="M303.23,52.54c-.14-4.33-2-5.31-5.29-6v-.09c3.79-.69,5.62-2.36,5.62-7.93,0-4.16-.7-5.66-2.15-7C300.15,30.39,298.32,30,295,30H274.13V60h10.06V49.71h4.91c2.06,0,2.48.17,2.95.56s.8.86.89,3.09A52.42,52.42,0,0,0,293.5,60h10.25C303.56,58.37,303.33,55.46,303.23,52.54Zm-11-9.64c-.28.26-.8.34-2.62.34h-5.43V36.82h5.43c1.82,0,2.29.09,2.62.34S293,38.23,293,40,292.75,42.47,292.24,42.9Z" /><path d="M126.6,79.55l-1.18.3a8.73,8.73,0,0,1-1.81.2,2.59,2.59,0,0,1-2-.63,2.69,2.69,0,0,1-.58-2.11V68.14h-2.31v-1.6h2.31V63.76h1.88v2.77h3.69v1.6h-3.69v8.75c0,.7.08,1,.28,1.18s.43.28,1.18.28h2.21Z" /><path d="M129.86,73.83c0,3.06.23,3.74.6,4.11s.65.38,1.6.38h3.33c.83,0,1.18-.1,1.45-.38s.43-.73.45-2.11h1.8c0,2.06-.28,2.76-.93,3.41a3.1,3.1,0,0,1-2.43.7h-3.86c-1.38,0-2.16-.17-2.73-.75-.85-.85-1.15-1.93-1.15-6s.3-5.09,1.15-5.94c.58-.58,1.35-.75,2.73-.75h3.36a3.66,3.66,0,0,1,2.71.73c.85.88,1.15,2,1.15,5.84v.43c0,.2-.07.3-.3.3Zm0-1.48h7.42c0-2.76-.23-3.43-.63-3.81s-.63-.4-1.6-.4h-3c-1,0-1.3.1-1.63.43S129.88,69.55,129.86,72.35Z" /><path d="M152,75.41c-.08,2.43-.33,3.21-1,3.86a3,3,0,0,1-2.38.68h-3.54c-1.38,0-2.16-.17-2.73-.75-.85-.85-1.15-1.93-1.15-6s.3-5.09,1.15-5.94c.58-.58,1.35-.75,2.73-.75h3.51c1.33,0,1.91.17,2.41.68s.88,1.48.93,3.71h-1.8c-.08-1.71-.23-2.11-.5-2.38s-.58-.35-1.4-.35h-2.93c-1,0-1.33.08-1.63.38s-.6,1.05-.6,4.66.2,4.29.6,4.69.68.37,1.63.37h2.93c.83,0,1.15-.08,1.45-.35s.45-.83.5-2.53Z" /><path d="M154.23,80V63.76h1.86v4.55c1.76-1.43,2.38-1.8,3.81-1.8h2a3,3,0,0,1,2.33.7,3.59,3.59,0,0,1,.7,2.68V80H163V70a1.9,1.9,0,0,0-.4-1.48c-.28-.28-.53-.38-1.5-.38h-1.76a5.48,5.48,0,0,0-3.28,1.2V80Z" /><path d="M167.9,80V66.54h1.86v1.78c1.76-1.43,2.38-1.8,3.81-1.8h2a3,3,0,0,1,2.33.7,3.59,3.59,0,0,1,.7,2.68V80H176.7V70a1.9,1.9,0,0,0-.4-1.48c-.28-.28-.53-.38-1.5-.38H173a5.48,5.48,0,0,0-3.28,1.2V80Z" /><path d="M182.25,79.2c-.85-.85-1.15-1.93-1.15-6s.3-5.09,1.15-5.94c.58-.58,1.35-.75,2.73-.75h3.51c1.35,0,2.16.17,2.71.75.88.85,1.18,1.93,1.18,5.94s-.3,5.12-1.18,6c-.55.58-1.35.75-2.71.75H185C183.6,80,182.82,79.78,182.25,79.2Zm1.3-1.28c.3.28.68.37,1.63.37h3.11c1,0,1.33-.1,1.6-.37s.63-1.05.63-4.69-.23-4.26-.63-4.66-.65-.38-1.6-.38h-3.11c-1,0-1.33.08-1.63.38s-.6,1.05-.6,4.66S183.15,77.52,183.55,77.92Z" /><path d="M195,80V63.76h1.86V80Z" /><path d="M200.53,79.2c-.85-.85-1.15-1.93-1.15-6s.3-5.09,1.15-5.94c.58-.58,1.35-.75,2.73-.75h3.51c1.35,0,2.16.17,2.71.75.88.85,1.18,1.93,1.18,5.94s-.3,5.12-1.18,6c-.55.58-1.35.75-2.71.75h-3.51C201.88,80,201.11,79.78,200.53,79.2Zm1.31-1.28c.3.28.68.37,1.63.37h3.11c1,0,1.33-.1,1.6-.37s.63-1.05.63-4.69-.23-4.26-.63-4.66-.65-.38-1.6-.38h-3.11c-1,0-1.33.08-1.63.38s-.6,1.05-.6,4.66S201.43,77.52,201.83,77.92Z" /><path d="M216,83.71a2.85,2.85,0,0,1-2.16-.65c-.53-.53-.7-1.13-.73-2.61H215c0,.88.13,1.15.4,1.4s.45.3,1.23.3h3.79c.73,0,1-.08,1.28-.33s.4-.53.4-2V77c-1.78,1.43-2.43,1.78-3.81,1.78H216.7c-1.53,0-2.28-.25-2.86-.83-.78-.8-1.05-1.78-1.05-5.32s.28-4.49,1.05-5.29c.58-.58,1.33-.83,2.86-.83h1.55c1.38,0,2,.35,3.81,1.8V66.54h1.86V79.65c0,2.13-.25,2.78-.85,3.38a2.92,2.92,0,0,1-2.33.68Zm6.07-7.8V69.42a5.67,5.67,0,0,0-3.34-1.28h-1.65c-1.08,0-1.51.17-1.81.48-.5.5-.63,1.1-.63,4s.12,3.54.63,4c.3.33.73.5,1.81.5h1.73A5.53,5.53,0,0,0,222.07,75.91Z" /><path d="M227.56,66.54l4,10.88h.17l3.69-10.88h2L231.8,82.26a2,2,0,0,1-2.18,1.51c-.8,0-1.83-.1-2.58-.18v-1.5h2.43c.45,0,.6-.2.75-.58l.55-1.5-5.32-13.47Z" /><path d="M246.22,83.71a2.85,2.85,0,0,1-2.16-.65c-.53-.53-.7-1.13-.73-2.61h1.86c0,.88.13,1.15.4,1.4s.45.3,1.23.3h3.79c.73,0,1-.08,1.28-.33s.4-.53.4-2V77c-1.78,1.43-2.43,1.78-3.81,1.78h-1.55c-1.53,0-2.28-.25-2.86-.83-.78-.8-1.05-1.78-1.05-5.32s.28-4.49,1.05-5.29c.58-.58,1.33-.83,2.86-.83h1.55c1.38,0,2,.35,3.81,1.8V66.54h1.86V79.65c0,2.13-.25,2.78-.85,3.38a2.92,2.92,0,0,1-2.33.68Zm6.07-7.8V69.42A5.67,5.67,0,0,0,249,68.14H247.3c-1.08,0-1.51.17-1.81.48-.5.5-.63,1.1-.63,4s.12,3.54.63,4c.3.33.73.5,1.81.5H249A5.53,5.53,0,0,0,252.29,75.91Z" /><path d="M257.21,80V66.54h1.86v2.18c1.63-1.71,2.23-2.21,3.36-2.21H264v1.91h-1.78a4.83,4.83,0,0,0-3.18,1.15V80Z" /><path d="M266.23,79.2c-.85-.85-1.15-1.93-1.15-6s.3-5.09,1.15-5.94c.58-.58,1.35-.75,2.73-.75h3.51c1.35,0,2.16.17,2.71.75.88.85,1.18,1.93,1.18,5.94s-.3,5.12-1.18,6c-.55.58-1.35.75-2.71.75H269C267.59,80,266.81,79.78,266.23,79.2Zm1.31-1.28c.3.28.68.37,1.63.37h3.11c1,0,1.33-.1,1.6-.37s.63-1.05.63-4.69-.23-4.26-.63-4.66-.65-.38-1.6-.38h-3.11c-1,0-1.33.08-1.63.38s-.6,1.05-.6,4.66S267.14,77.52,267.54,77.92Z" /><path d="M289.58,66.54V80h-1.86v-1.8c-1.78,1.45-2.43,1.83-3.84,1.83h-2a2.79,2.79,0,0,1-2.31-.73c-.53-.5-.73-1.23-.73-2.66V66.54h1.86v9.93c0,.75.1,1.18.4,1.46s.55.4,1.53.4h1.75a5.43,5.43,0,0,0,3.29-1.2V66.54Z" /><path d="M294.47,66.54v1.78c1.78-1.45,2.41-1.8,3.81-1.8h1.55c1.53,0,2.28.25,2.86.83.78.8,1.05,1.86,1.05,5.89s-.28,5.12-1.05,5.92c-.58.58-1.33.83-2.86.83h-1.55c-1.38,0-2.06-.35-3.81-1.8v5.54h-1.86V66.54Zm0,2.83v7.72a5.73,5.73,0,0,0,3.34,1.23h1.65c1.08,0,1.51-.17,1.81-.48.5-.5.63-1.28.63-4.61s-.12-4.11-.63-4.59c-.3-.33-.73-.48-1.81-.48h-1.7A5.6,5.6,0,0,0,294.47,69.37Z" /><path class="cls-1" d="M80.95,55c-1.05-4.32-4.79-7.83-9.7-9.27a17.65,17.65,0,0,0-5-.73h-10V30h-10V80h20a17.65,17.65,0,0,0,5-.73c4.91-1.45,8.65-4.95,9.7-9.27a10.54,10.54,0,0,0,.3-2.5v-10A10.54,10.54,0,0,0,80.95,55ZM56.25,70V55H66.46a4.89,4.89,0,0,1,4.79,4.9v5.17A4.89,4.89,0,0,1,66.46,70H56.25Z" /><path class="cls-1" d="M38.75,16.25a17.65,17.65,0,0,0-5,.73c-4.91,1.45-8.65,4.95-9.7,9.27a10.54,10.54,0,0,0-.3,2.5V45a5,5,0,0,1-5,5h-2.5V60h2.5a5,5,0,0,1,5,5V81.25a10.54,10.54,0,0,0,.3,2.5c1.05,4.32,4.79,7.83,9.7,9.27a17.65,17.65,0,0,0,5,.73h2.5v-10h-2.5a5,5,0,0,1-5-5V65a10.71,10.71,0,0,0-1.26-5,13.23,13.23,0,0,0-4.77-5,13.23,13.23,0,0,0,4.77-5,10.71,10.71,0,0,0,1.26-5V31.25a5,5,0,0,1,5-5h2.5v-10Z" /><path class="cls-1" d="M86.25,16.25a17.65,17.65,0,0,1,5,.73c4.91,1.45,8.65,4.95,9.7,9.27a10.54,10.54,0,0,1,.3,2.5V45a5,5,0,0,0,5,5h2.5V60h-2.5a5,5,0,0,0-5,5V81.25a10.54,10.54,0,0,1-.3,2.5c-1.05,4.32-4.79,7.83-9.7,9.27a17.65,17.65,0,0,1-5,.73h-2.5v-10h2.5a5,5,0,0,0,5-5V65a10.71,10.71,0,0,1,1.26-5,13.23,13.23,0,0,1,4.77-5,13.23,13.23,0,0,1-4.77-5,10.71,10.71,0,0,1-1.26-5V31.25a5,5,0,0,0-5-5h-2.5v-10Z" /></svg>